<svg data-v-423bf9ae="" xmlns="http://www.w3.org/2000/svg" viewBox="0 0 467.14291219461495 175" class="iconAbove"><!----><!----><!----><g data-v-423bf9ae="" id="b13154a9-75b0-441c-bf28-cd45eb192fb5" fill="black" transform="matrix(6.122449456230433,0,0,6.122449456230433,-1.9591828249680248,102.47311396471702)"><path d="M0.32 10.60L0.32 1.93L2.25 1.93L2.25 3.77L2.25 3.77Q2.25 4.70 2.21 5.76L2.21 5.76L2.21 5.78L2.24 5.78L2.24 5.78Q2.47 5.33 3.53 3.46L3.53 3.46L3.53 3.46Q4.08 2.51 4.08 2.02L4.08 2.02L4.08 1.93L6.06 1.93L6.06 1.98L6.06 1.98Q6.06 2.92 5.28 4.03L5.28 4.03L4.11 5.74L5.26 8.19L6.30 8.19L6.30 8.48L5.13 8.48L5.13 8.50L5.13 8.50Q5.41 9.11 5.50 9.23L5.50 9.23L5.71 9.23L5.71 10.12L6.01 10.12L6.01 11.72L6.01 11.72Q5.50 11.73 5.26 11.73L5.26 11.73L4.79 11.73L4.79 11.73Q4.53 11.73 4.09 11.72L4.09 11.72L4.09 10.64L3.66 10.64L3.66 9.23L3.42 9.23L3.16 8.48L5.11 8.48L5.11 8.19L3.32 8.19L3.32 8.19Q3.32 8.16 3.01 7.20L3.01 7.20L2.99 7.20L2.99 7.20Q2.82 7.51 2.33 8.19L2.33 8.19L3.16 8.19L3.16 8.48L2.25 8.48L2.25 8.96L2.13 8.96L2.13 11.20L2.25 11.20L2.25 11.70L2.25 11.70Q2.25 11.73 2.21 11.73L2.21 11.73L0.36 11.73L0.36 11.73Q0.32 11.73 0.32 11.70L0.32 11.70L0.32 10.92L1.20 10.92L1.20 10.60L0.32 10.60ZM5.31 7.69L5.31 7.69L5.41 7.69L5.41 7.69Q5.46 7.69 5.51 7.96L5.51 7.96L5.51 7.96Q5.54 7.96 5.61 7.69L5.61 7.69L5.76 7.69L5.76 8.11L5.76 8.11Q5.76 8.14 5.73 8.14L5.73 8.14L5.66 8.14L5.66 7.88L5.65 7.88L5.65 7.88Q5.65 7.90 5.56 8.14L5.56 8.14L5.51 8.14L5.51 8.14Q5.46 8.14 5.41 7.91L5.41 7.91L5.39 7.91L5.39 8.11L5.39 8.11Q5.39 8.14 5.37 8.14L5.37 8.14L5.31 8.14L5.31 8.14Q5.28 8.14 5.28 8.11L5.28 8.11L5.28 7.72L5.28 7.72Q5.28 7.69 5.31 7.69ZM2.32 8.19L1.11 8.19L1.11 8.48L2.24 8.48L2.24 8.48Q2.24 8.43 2.32 8.19L2.32 8.19ZM3.68 10.73L3.68 10.71L3.78 10.71L3.78 10.71Q3.80 10.71 3.88 10.82L3.88 10.82L3.88 10.82Q3.94 10.71 3.96 10.71L3.96 10.71L4.06 10.71L4.06 10.73L3.93 10.92L3.93 10.92Q3.96 10.93 4.08 11.14L4.08 11.14L3.94 11.14L3.88 11.01L3.88 11.01Q3.78 11.14 3.77 11.14L3.77 11.14L3.66 11.14L3.66 11.14Q3.78 10.93 3.81 10.92L3.81 10.92L3.68 10.73ZM6.71 1.96L6.71 1.96L8.70 1.96L8.70 1.96Q8.74 1.96 9.34 3.53L9.34 3.53L9.34 3.53Q9.39 3.59 10.60 6.62L10.60 6.62L11.12 6.62L11.12 1.96L12.86 1.96L12.86 7.51L13.06 7.51L13.06 9.67L12.35 9.67L12.35 10.08L13.06 10.08L13.06 11.37L10.44 11.37L10.44 9.73L9.97 9.73L9.97 9.73Q9.03 7.44 8.70 6.56L8.70 6.56L8.70 4.92L8.46 4.92L8.46 9.93L8.06 9.93L8.06 11.66L6.43 11.66L6.43 7.94L6.72 7.94L6.72 7.92L6.72 7.92Q6.71 3.09 6.71 1.96ZM10.57 6.62L9.65 6.62L9.65 6.98L10.73 6.98L10.73 6.98Q10.60 6.62 10.57 6.62L10.57 6.62ZM11.92 6.62L11.13 6.62L11.13 6.98L10.75 6.98L10.75 6.98Q11.09 7.85 11.16 8.11L11.16 8.11L11.18 8.11L11.18 8.07L11.18 8.07Q11.13 7.18 11.13 6.98L11.13 6.98L11.92 6.98L11.92 6.62ZM10.44 11.73L10.44 11.55L13.60 11.55L13.60 11.73L10.44 11.73ZM17.51 1.95L17.51 1.95L17.51 1.95Q19.61 1.95 20.28 3.42L20.28 3.42L20.28 3.42Q20.65 4.14 20.65 6.19L20.65 6.19L20.65 6.23L19.93 6.23L19.93 6.56L20.65 6.56L20.65 10.10L20.17 10.10L20.17 11.37L19.22 11.37L19.22 11.73L15.90 11.73L15.90 11.37L15.50 11.37L15.50 10.10L14.64 10.10L14.64 9.10L15.15 9.10L15.15 8.57L14.64 8.57L14.64 9.10L13.43 9.10L13.43 8.57L14.35 8.57L14.35 8.57Q14.33 7.38 14.33 6.74L14.33 6.74L14.33 5.91L14.33 5.91Q14.33 3.58 15.12 2.80L15.12 2.80L15.12 2.80Q15.84 1.95 17.51 1.95ZM16.31 5.32L16.31 5.32L16.33 5.32L16.31 5.35L16.31 6.23L15.58 6.23L15.58 6.56L16.31 6.56L16.31 6.56Q16.30 8.67 16.30 9.75L16.30 9.75L16.30 10.10L17.93 10.10L17.93 9.56L18.68 9.56L18.68 9.54L18.68 9.54Q18.68 8.54 18.67 6.75L18.67 6.75L18.67 6.75Q18.67 6.68 18.68 6.38L18.68 6.38L18.68 6.38Q18.68 4.45 18.46 4.01L18.46 4.01L18.46 4.01Q18.22 3.58 17.60 3.58L17.60 3.58L17.36 3.58L17.36 3.58Q16.62 3.58 16.44 4.24L16.44 4.24L16.44 4.24Q16.36 4.56 16.31 5.32ZM20.65 6.56L20.65 6.23L21.83 6.23L21.83 6.56L20.65 6.56ZM22.16 7.14L21.38 1.95L23.23 1.95L23.78 6.86L24.29 6.86L24.29 6.86Q24.31 6.80 24.74 1.95L24.74 1.95L27.08 1.95L27.08 1.95Q27.54 6.96 27.55 7.05L27.55 7.05L28.32 7.05L28.32 7.05Q28.83 2.65 28.90 1.95L28.90 1.95L30.75 1.95L29.98 7.14L29.83 7.14L29.83 8.10L28.44 8.10L28.44 8.34L29.54 8.34L29.54 9.80L28.49 9.80L28.49 11.09L28.19 11.09L28.19 11.65L27.00 11.65L27.00 8.48L26.24 8.48L26.24 7.34L26.24 7.34Q26.24 7.20 25.93 4.58L25.93 4.58L25.89 4.58L25.89 4.60L25.64 6.86L25.77 6.86L25.77 10.36L24.63 10.36L24.63 11.73L23.17 11.73L23.17 10.36L22.61 10.36L22.61 7.14L22.16 7.14ZM31.48 7.13L30.71 1.93L32.56 1.93L33.11 6.86L33.62 6.86L33.62 6.86Q33.63 6.79 34.07 1.93L34.07 1.93L36.42 1.93L36.42 1.93Q36.87 6.95 36.89 7.05L36.89 7.05L37.66 7.05L37.66 7.05Q38.17 2.65 38.23 1.93L38.23 1.93L40.09 1.93L39.31 7.13L39.17 7.13L39.17 8.09L37.77 8.09L37.77 8.34L38.88 8.34L38.88 9.80L37.82 9.80L37.82 11.09L37.53 11.09L37.53 11.65L36.34 11.65L36.34 8.48L35.57 8.48L35.57 7.34L35.57 7.34Q35.57 7.19 35.26 4.57L35.26 4.57L35.23 4.57L35.23 4.59L34.97 6.86L35.10 6.86L35.10 10.36L33.95 10.36L33.95 11.73L32.49 11.73L32.49 10.36L31.93 10.36L31.93 7.13L31.48 7.13ZM31.54 7.27L31.54 7.27L31.64 7.27L31.71 7.49L31.72 7.49L31.72 7.49Q31.77 7.27 31.80 7.27L31.80 7.27L31.86 7.27L31.86 7.29L31.86 7.29Q31.77 7.63 31.74 7.63L31.74 7.63L31.66 7.63L31.66 7.63Q31.66 7.58 31.54 7.27ZM31.53 7.94L31.53 7.76L31.62 7.76L31.62 8.00L31.62 8.00Q31.62 8.01 31.69 8.05L31.69 8.05L31.69 8.05Q31.75 8.03 31.75 8.00L31.75 8.00L31.75 7.76L31.85 7.76L31.85 7.94L31.85 7.94Q31.85 8.07 31.75 8.11L31.75 8.11L31.66 8.11L31.66 8.11Q31.53 8.11 31.53 7.94L31.53 7.94ZM31.53 8.56L31.53 8.24L31.77 8.24L31.77 8.24Q31.79 8.24 31.83 8.31L31.83 8.31L31.83 8.37L31.80 8.42L31.80 8.42Q31.83 8.47 31.85 8.59L31.85 8.59L31.75 8.59L31.75 8.59Q31.75 8.55 31.74 8.46L31.74 8.46L31.62 8.46L31.62 8.59L31.56 8.59L31.56 8.59Q31.53 8.59 31.53 8.56L31.53 8.56ZM31.74 8.31L31.62 8.31L31.62 8.39L31.72 8.39L31.72 8.39Q31.75 8.39 31.75 8.35L31.75 8.35L31.75 8.35Q31.74 8.32 31.74 8.31L31.74 8.31ZM31.59 9.04L31.59 8.72L31.85 8.72L31.85 8.80L31.69 8.80L31.69 8.85L31.80 8.85L31.80 8.85Q31.83 8.86 31.83 8.89L31.83 8.89L31.83 8.93L31.69 8.93L31.69 9.08L31.62 9.08L31.62 9.08Q31.59 9.08 31.59 9.04L31.59 9.04ZM31.69 9.19L31.69 9.19L31.69 9.19Q31.83 9.22 31.83 9.32L31.83 9.32L31.80 9.33L31.77 9.33L31.71 9.27L31.66 9.27L31.66 9.27Q31.59 9.30 31.59 9.38L31.59 9.38L31.59 9.38Q31.59 9.50 31.69 9.50L31.69 9.50L31.69 9.50Q31.75 9.47 31.75 9.45L31.75 9.45L31.75 9.43L31.75 9.43Q31.67 9.43 31.67 9.40L31.67 9.40L31.67 9.38L31.67 9.38Q31.68 9.35 31.71 9.35L31.71 9.35L31.83 9.35L31.83 9.56L31.81 9.56L31.81 9.56Q31.80 9.56 31.77 9.54L31.77 9.54L31.67 9.56L31.66 9.56L31.66 9.56Q31.51 9.54 31.51 9.41L31.51 9.41L31.51 9.35L31.51 9.35Q31.51 9.21 31.69 9.19ZM31.53 10.01L31.53 9.69L31.62 9.69L31.62 9.82L31.75 9.82L31.75 9.69L31.85 9.69L31.85 10.01L31.85 10.01Q31.85 10.04 31.81 10.04L31.81 10.04L31.75 10.04L31.75 9.90L31.62 9.90L31.62 10.04L31.56 10.04L31.56 10.04Q31.53 10.04 31.53 10.01L31.53 10.01ZM37.86 9.88L37.86 9.88L37.96 9.88L37.96 9.88Q37.99 10.02 37.99 10.08L37.99 10.08L38.01 10.08L38.01 10.08Q38.06 9.92 38.06 9.88L38.06 9.88L38.12 9.88L38.12 9.88Q38.17 9.88 38.19 10.09L38.19 10.09L38.21 10.09L38.21 10.09Q38.23 9.88 38.27 9.88L38.27 9.88L38.33 9.88L38.33 9.88Q38.25 10.23 38.22 10.23L38.22 10.23L38.15 10.23L38.10 10.04L38.09 10.04L38.09 10.04Q38.06 10.22 38.06 10.23L38.06 10.23L37.96 10.23L37.96 10.23Q37.93 10.10 37.86 9.88ZM37.88 10.38L37.88 10.36L37.96 10.36L37.96 10.36Q37.99 10.36 38.03 10.46L38.03 10.46L38.03 10.46Q38.06 10.46 38.09 10.36L38.09 10.36L38.19 10.36L38.19 10.38L38.09 10.53L38.09 10.53Q38.09 10.53 38.21 10.70L38.21 10.70L38.21 10.72L38.12 10.72L38.12 10.72Q38.08 10.72 38.04 10.60L38.04 10.60L38.04 10.60Q37.96 10.72 37.95 10.72L37.95 10.72L37.86 10.72L37.86 10.72Q37.86 10.71 37.98 10.54L37.98 10.54L37.98 10.53L37.88 10.38ZM40.72 6.80L40.72 2.00L45.51 2.00L45.51 3.60L45.51 3.60Q45.51 3.63 45.48 3.63L45.48 3.63L42.64 3.63L42.64 5.74L45.19 5.74L45.19 5.76L45.19 5.76Q45.19 5.84 45.16 6.79L45.16 6.79L45.16 6.79Q45.14 6.79 45.14 6.80L45.14 6.80L45.25 6.80L45.25 7.29L43.05 7.29L43.05 9.29L42.45 9.29L42.45 9.49L43.05 9.49L43.05 10.10L45.55 10.10L45.55 10.32L45.35 10.32L45.35 11.52L42.36 11.52L42.36 11.73L40.93 11.73L40.93 8.24L40.72 8.24L40.72 7.01L39.16 7.01L39.16 6.80L40.72 6.80ZM41.54 6.80L40.74 6.80L40.74 7.01L41.54 7.01L41.54 6.80ZM47.69 7.57L49.37 1.96L51.02 1.96L51.02 1.96Q51.05 2.10 52.62 7.29L52.62 7.29L52.92 7.29L52.92 10.51L52.24 10.51L52.24 10.76L52.92 10.76L52.92 11.45L51.10 11.45L51.10 9.47L48.88 9.47L48.88 10.32L47.97 10.32L47.97 11.73L46.32 11.73L46.32 11.63L46.45 11.63L46.45 10.32L47.13 10.32L47.13 7.57L47.69 7.57ZM50.18 4.71L50.14 4.71L50.14 4.72L50.14 4.72Q49.93 5.89 49.32 8.40L49.32 8.40L50.85 8.40L50.85 7.29L50.72 7.29L50.72 7.29Q50.18 4.92 50.18 4.71L50.18 4.71ZM45.84 7.57L45.84 7.28L47.13 7.28L47.13 7.57L45.84 7.57ZM51.10 11.73L51.10 11.57L53.29 11.57L53.29 11.73L51.10 11.73ZM52.73 3.57L52.73 1.93L58.47 1.93L58.47 3.57L56.57 3.57L56.57 10.34L57.43 10.34L57.43 10.54L56.57 10.54L56.57 11.29L56.05 11.29L56.05 11.55L56.42 11.55L56.42 11.73L54.67 11.73L54.67 11.73Q54.64 11.73 54.64 11.70L54.64 11.70L54.64 3.57L52.73 3.57ZM56.55 10.34L55.89 10.34L55.89 10.54L56.55 10.54L56.55 10.34ZM58.20 6.64L58.20 1.96L60.14 1.96L60.14 5.85L62.10 5.85L62.10 1.96L63.74 1.96L63.74 7.51L63.06 7.51L63.06 7.75L63.74 7.75L63.74 11.73L62.13 11.73L62.13 11.73Q62.10 11.73 62.10 11.70L62.10 11.70L62.10 7.48L60.14 7.48L60.14 11.70L60.14 11.70Q60.14 11.73 60.11 11.73L60.11 11.73L58.48 11.73L58.48 6.64L58.20 6.64ZM63.74 7.75L63.74 7.51L64.61 7.51L64.61 7.75L63.74 7.75ZM65.24 6.80L65.24 2.00L70.03 2.00L70.03 3.60L70.03 3.60Q70.03 3.63 69.99 3.63L69.99 3.63L67.15 3.63L67.15 5.74L69.70 5.74L69.70 5.76L69.70 5.76Q69.70 5.84 69.67 6.79L69.67 6.79L69.67 6.79Q69.65 6.79 69.65 6.80L69.65 6.80L69.77 6.80L69.77 7.29L67.56 7.29L67.56 9.29L66.96 9.29L66.96 9.49L67.56 9.49L67.56 10.10L70.06 10.10L70.06 10.32L69.86 10.32L69.86 11.52L66.87 11.52L66.87 11.73L65.45 11.73L65.45 8.24L65.24 8.24L65.24 7.01L63.68 7.01L63.68 6.80L65.24 6.80ZM66.05 6.80L65.25 6.80L65.25 7.01L66.05 7.01L66.05 6.80ZM70.80 7.49L70.80 1.96L74.15 1.96L74.15 1.96Q75.83 1.96 76.32 3.14L76.32 3.14L76.32 3.14Q76.54 3.75 76.54 4.53L76.54 4.53L76.54 4.94L76.54 4.94Q76.54 6.36 75.91 7.11L75.91 7.11L75.20 7.11L75.20 7.47L76.29 7.47L76.29 9.81L75.65 9.81L75.65 10.17L76.62 10.17L76.62 11.55L74.58 11.55L74.58 9.34L73.79 9.34L73.79 7.92L72.43 7.92L72.43 10.34L72.72 10.34L72.72 11.73L70.83 11.73L70.83 11.73Q70.80 11.73 70.80 11.70L70.80 11.70L70.80 7.77L71.64 7.77L71.64 7.49L70.80 7.49ZM73.53 3.55L72.72 3.55L72.72 6.31L73.19 6.31L73.19 6.31Q74.23 6.31 74.40 6.11L74.40 6.11L74.40 6.11Q74.57 6.00 74.66 5.67L74.66 5.67L75.39 5.67L75.39 5.32L74.73 5.32L74.73 5.35L74.73 5.35Q74.68 5.67 74.65 5.67L74.65 5.67L73.71 5.67L73.71 5.32L74.70 5.32L74.70 5.32Q74.73 5.32 74.73 5.29L74.73 5.29L74.73 5.29Q74.74 4.87 74.74 4.81L74.74 4.81L74.74 4.81Q74.74 3.90 74.43 3.69L74.43 3.69L74.43 3.69Q74.18 3.55 73.53 3.55L73.53 3.55Z"></path></g><!----><g data-v-423bf9ae="" id="239da4fe-8aa0-42cd-84ad-aba905ea6397" transform="matrix(1.0608667161729601,0,0,1.0608667161729601,180.9561302346724,-1.782338167037011)" stroke="none" fill="black"><path d="M58.585 35.762l6.475.398-6.037 2.381a26.714 26.714 0 0 0-.438-2.779zm-1.18-3.977l6.455-.619-5.587 3.293a26.321 26.321 0 0 0-.868-2.674zm-1.792-3.743l6.282-1.622-5.004 4.127a26.208 26.208 0 0 0-1.278-2.505zm-2.344-3.401l13.869-7.226-11.932 9.95a26.417 26.417 0 0 0-1.937-2.724zm-3.295-3.394L72.151 2.261 52.765 24.038a26.743 26.743 0 0 0-2.791-2.791zm-3.229-2.38L58.179 5.559l-8.69 15.281a26.332 26.332 0 0 0-2.744-1.973zm-3.281-1.748l6.289-9.331-3.784 10.609a26.798 26.798 0 0 0-2.505-1.278zm-3.912-1.381l4.006-7.816-1.331 8.684a26.092 26.092 0 0 0-2.675-.868zm-4.081-.749l2.381-6.038.397 6.475a26.389 26.389 0 0 0-2.778-.437zm-4.148-.103l1.408-6.337 1.407 6.337a27.378 27.378 0 0 0-2.815 0zm-4.111.54l.398-6.475 2.381 6.038a26.49 26.49 0 0 0-2.779.437zm-3.977 1.18l-.619-6.455 3.294 5.587c-.911.242-1.804.533-2.675.868zm-3.742 1.792l-1.621-6.282 4.127 5.003c-.861.383-1.697.81-2.506 1.279zm-3.415 2.356L13.492 14.8l4.861 4.298a26.63 26.63 0 0 0-2.275 1.656zm-3.005 2.858l-3.486-5.477 5.477 3.486a26.525 26.525 0 0 0-1.991 1.991zm-2.524 3.291l-4.298-4.862 5.954 2.586a26.704 26.704 0 0 0-1.656 2.276zM8.57 30.547L3.567 26.42l6.281 1.622a26.68 26.68 0 0 0-1.278 2.505zm-1.382 3.912l-5.586-3.294 6.455.619a26.596 26.596 0 0 0-.869 2.675zm-.748 4.082L.403 36.16l6.475-.399c-.193.91-.34 1.838-.438 2.78zm-.103 4.147L0 41.28l6.337-1.408a26.326 26.326 0 0 0 0 2.816zm.541 4.111L.403 46.4l6.037-2.38c.098.941.245 1.869.438 2.779zm1.18 3.976l-6.456.619L7.189 48.1c.243.913.533 1.805.869 2.675zm1.791 3.743L3.567 56.14l5.003-4.127c.382.86.81 1.696 1.279 2.505zm-.366 2.344l1.065-1.205c.089.138.18.274.271.409-.459.245-.905.51-1.336.796zM9.914 41.28c0-12.602 10.216-22.817 22.817-22.817 12.439 0 22.553 9.954 22.812 22.331a22.68 22.68 0 0 0-6.989 5 20.234 20.234 0 0 0-5.926-.882c-7.799 0-14.562 4.409-17.942 10.868a15.405 15.405 0 0 0-6.648-1.5 15.48 15.48 0 0 0-3.735.455A22.706 22.706 0 0 1 9.914 41.28z"></path><path d="M83.893 59.657a10.96 10.96 0 0 1 5.099-1.249c6.08 0 11.009 4.928 11.009 11.009 0 1.729-.398 3.364-1.108 4.821H79.091l-.049-.102-.092.102H7.092a11.815 11.815 0 0 1-.887-4.503c0-6.534 5.298-11.832 11.832-11.832 3.284 0 6.255 1.338 8.399 3.498 1.699-7.371 8.305-12.867 16.191-12.867 2.516 0 4.9.559 7.037 1.559 3.462-4.687 9.025-7.727 15.299-7.727 9.919.001 18.063 7.598 18.93 17.291z"></path><path clip-rule="evenodd" d="M52.361 78.836c.342-1.14 3.561-5.177 3.615-5.177.02 0 .853 4.037.511 5.177-.342 1.139-1.543 2.062-2.682 2.062s-1.785-.923-1.444-2.062zM57.251 84.268c.342-1.139 3.561-5.176 3.615-5.176.02 0 .852 4.037.51 5.176-.342 1.14-1.543 2.063-2.682 2.063s-1.785-.924-1.443-2.063zM65.399 78.836c.342-1.14 3.561-5.177 3.615-5.177.02 0 .852 4.037.51 5.177-.342 1.139-1.542 2.062-2.682 2.062-1.138 0-1.784-.923-1.443-2.062zM70.288 84.268c.342-1.139 3.561-5.176 3.616-5.176.02 0 .852 4.037.51 5.176-.342 1.14-1.542 2.063-2.682 2.063s-1.786-.924-1.444-2.063zM78.438 78.836c.342-1.14 3.561-5.177 3.616-5.177.02 0 .852 4.037.51 5.177-.342 1.139-1.543 2.062-2.682 2.062-1.14 0-1.786-.923-1.444-2.062zM83.327 84.268c.342-1.139 3.561-5.176 3.615-5.176.02 0 .852 4.037.51 5.176-.342 1.14-1.542 2.063-2.682 2.063-1.138 0-1.785-.924-1.443-2.063zM91.476 78.836c.342-1.14 3.561-5.177 3.615-5.177.02 0 .852 4.037.511 5.177-.342 1.139-1.542 2.062-2.682 2.062s-1.786-.923-1.444-2.062zM53.828 95.676c.342-1.139 3.561-5.176 3.616-5.176.019 0 .851 4.037.51 5.176-.342 1.141-1.543 2.063-2.682 2.063s-1.786-.923-1.444-2.063zM61.978 90.244c.342-1.14 3.561-5.176 3.615-5.176.02 0 .852 4.036.51 5.176-.342 1.139-1.543 2.062-2.682 2.062s-1.786-.923-1.443-2.062zM66.866 95.676c.342-1.139 3.561-5.176 3.615-5.176.02 0 .852 4.037.51 5.176-.342 1.141-1.542 2.063-2.682 2.063-1.138 0-1.785-.923-1.443-2.063zM75.015 90.244c.342-1.14 3.561-5.176 3.616-5.176.02 0 .852 4.036.51 5.176-.342 1.139-1.542 2.062-2.682 2.062s-1.786-.923-1.444-2.062zM79.904 95.676c.342-1.139 3.561-5.176 3.616-5.176.02 0 .852 4.037.51 5.176-.342 1.141-1.543 2.063-2.682 2.063s-1.786-.923-1.444-2.063zM88.054 90.244c.342-1.14 3.561-5.176 3.615-5.176.02 0 .852 4.036.51 5.176-.342 1.139-1.543 2.062-2.682 2.062s-1.785-.923-1.443-2.062zM95.223 42.765l-1.945-.343 1.55-1.085c.619-.434.77-1.287.336-1.906l-.072-.103a1.368 1.368 0 0 0-1.906-.336l-3.995 2.797-3.624-.639 2.555-2.836 4.871-.255a1.37 1.37 0 0 0 1.295-1.438l-.007-.125a1.369 1.369 0 0 0-1.438-1.295l-1.889.099 1.322-1.468a1.368 1.368 0 0 0-.102-1.933l-.094-.083-.064-.058a1.368 1.368 0 0 0-1.933.101l-1.351 1.5-.105-2.012a1.369 1.369 0 0 0-1.438-1.295l-.125.006a1.369 1.369 0 0 0-1.296 1.438l.255 4.871-2.855 3.17-1.598-3.956 1.906-4.489a1.369 1.369 0 0 0-.726-1.795l-.115-.049a1.37 1.37 0 0 0-1.795.725l-.787 1.854-.756-1.871a1.368 1.368 0 0 0-1.782-.756l-.115.047h-.001l-.08.033a1.37 1.37 0 0 0-.757 1.782l.74 1.832-1.74-.739a1.369 1.369 0 0 0-1.795.725l-.049.115c-.296.696.029 1.5.725 1.794l4.489 1.906 1.43 3.539-4.044-.713-2.797-3.995a1.369 1.369 0 0 0-1.907-.336l-.103.072a1.368 1.368 0 0 0-.336 1.906l1.155 1.65-1.987-.351a1.37 1.37 0 0 0-1.586 1.11l-.022.123v.001l-.016.085a1.369 1.369 0 0 0 1.111 1.585l1.945.343-1.55 1.085a1.368 1.368 0 0 0-.336 1.906l.071.103c.434.619 1.287.77 1.906.336l3.996-2.797 4.119.727-2.707 3.005-4.87.255a1.37 1.37 0 0 0-1.296 1.438l.007.125c.04.755.684 1.335 1.438 1.295l1.889-.099-1.322 1.468a1.368 1.368 0 0 0 .102 1.933l.094.084c.561.506 1.427.46 1.933-.102l1.409-1.564.111 2.134a1.37 1.37 0 0 0 1.438 1.296l.125-.008a1.37 1.37 0 0 0 1.296-1.438l-.256-4.871 2.855-3.171 1.599 3.957-1.905 4.49a1.369 1.369 0 0 0 .725 1.795l.115.049c.695.295 1.5-.029 1.795-.726l.835-1.968.788 1.952c.283.7 1.082 1.04 1.783.757l.115-.047a1.37 1.37 0 0 0 .756-1.782l-.74-1.832 1.742.739a1.37 1.37 0 0 0 1.795-.725l.049-.115a1.369 1.369 0 0 0-.726-1.795l-4.489-1.906-1.516-3.75 3.785.667 2.798 3.995c.434.619 1.287.77 1.906.336l.103-.072a1.37 1.37 0 0 0 .336-1.907l-1.226-1.751 2.073.366a1.37 1.37 0 0 0 1.586-1.11l.021-.123a1.363 1.363 0 0 0-1.107-1.583z"></path></g><!----></svg>